<svg width="18" height="17" viewBox="0 0 18 17" fill="none" xmlns="http://www.w3.org/2000/svg">
<path d="M17.4717 7.53281L13.2344 10.5274L14.8896 15.3705C14.9434 15.5334 14.9428 15.7087 14.8877 15.8712C14.8327 16.0337 14.7261 16.1749 14.5834 16.2745C14.4424 16.3737 14.2731 16.427 14.0993 16.427C13.9255 16.427 13.7561 16.3737 13.6151 16.2745L9.34478 13.288L5.10754 16.2907C4.96658 16.3898 4.7972 16.4432 4.6234 16.4432C4.4496 16.4432 4.28022 16.3898 4.13926 16.2907C3.99655 16.1911 3.88999 16.0499 3.83495 15.8874C3.77991 15.7249 3.77924 15.5495 3.83306 15.3866L5.48823 10.5436L1.21788 7.53281C1.07602 7.43264 0.970393 7.29115 0.91621 7.12871C0.862027 6.96627 0.862078 6.79125 0.916358 6.62884C0.970637 6.46643 1.07635 6.325 1.21827 6.22491C1.36019 6.12481 1.53102 6.07122 1.70616 6.07183H6.9365L8.59168 1.22878C8.6461 1.06729 8.7514 0.926679 8.89258 0.826996C9.03375 0.727312 9.20359 0.673645 9.37788 0.673645C9.55217 0.673645 9.72201 0.727312 9.86319 0.826996C10.0044 0.926679 10.1097 1.06729 10.1641 1.22878L11.8193 6.07183H17.0496C17.2247 6.07122 17.3956 6.12481 17.5375 6.22491C17.6794 6.325 17.7851 6.46643 17.8394 6.62884C17.8937 6.79125 17.8937 6.96627 17.8396 7.12871C17.7854 7.29115 17.6797 7.43264 17.5379 7.53281H17.4717Z" fill="#FFE34E"/>
</svg>
