<svg width="218" height="44" viewBox="0 0 218 44" fill="none" xmlns="http://www.w3.org/2000/svg">
<path d="M49.3375 11.3409L54.4295 27.6228L59.5058 11.3409H66.7443V34.7431H61.2292V29.2783L61.7619 18.0916L56.2469 34.7431H52.612L47.0813 18.0755L47.614 29.2783V34.7431H42.1147V11.3409H49.3375Z" fill="black"/>
<path d="M89.5721 23.5242C89.5721 25.8066 89.1595 27.8264 88.3343 29.5837C87.5092 31.341 86.3341 32.6965 84.8091 33.6502C83.2946 34.5931 81.5659 35.0646 79.6231 35.0646C77.6803 35.0646 75.9569 34.6092 74.4528 33.6984C72.9487 32.7769 71.7736 31.4642 70.9275 29.7605C70.0919 28.0568 69.6532 26.1012 69.6115 23.8939V22.5759C69.6115 20.2828 70.0188 18.263 70.8335 16.5164C71.6587 14.7591 72.8338 13.4036 74.3588 12.45C75.8942 11.4963 77.6385 11.0195 79.5918 11.0195C81.5241 11.0195 83.2476 11.491 84.7621 12.4339C86.2766 13.3769 87.4517 14.7216 88.2873 16.4682C89.1334 18.2041 89.5616 20.1971 89.5721 22.4473V23.5242ZM83.9787 22.5438C83.9787 20.2186 83.5975 18.4559 82.835 17.2558C82.0829 16.045 81.0019 15.4395 79.5918 15.4395C76.8342 15.4395 75.3772 17.5612 75.2205 21.8044L75.2048 23.5242C75.2048 25.8173 75.5756 27.58 76.3172 28.8122C77.0588 30.0445 78.1608 30.6606 79.6231 30.6606C81.0123 30.6606 82.0829 30.0552 82.835 28.8444C83.587 27.6335 83.9683 25.8923 83.9787 23.6207V22.5438Z" fill="black"/>
<path d="M100.915 28.3782L105.459 11.3409H111.601L103.924 34.7431H97.9073L90.2928 11.3409H96.3875L100.915 28.3782Z" fill="black"/>
<path d="M119.137 34.7431H113.653V11.3409H119.137V34.7431Z" fill="black"/>
<path d="M137.108 24.8261H128.459V30.4034H138.675V34.7431H122.96V11.3409H138.706V15.6967H128.459V20.6311H137.108V24.8261Z" fill="black"/>
<path d="M159.372 26.8192C159.298 28.4479 158.87 29.8891 158.087 31.1428C157.303 32.3858 156.201 33.3501 154.781 34.0359C153.371 34.7217 151.757 35.0646 149.94 35.0646C146.942 35.0646 144.581 34.0627 142.858 32.0589C141.134 30.0552 140.273 27.2263 140.273 23.5724V22.4152C140.273 20.1221 140.659 18.1184 141.432 16.4039C142.215 14.6788 143.338 13.3501 144.801 12.4178C146.263 11.4749 147.955 11.0034 149.877 11.0034C152.645 11.0034 154.87 11.7535 156.551 13.2536C158.233 14.7431 159.189 16.8004 159.419 19.4256H153.935C153.893 18.0005 153.543 16.9772 152.885 16.3557C152.227 15.7342 151.224 15.4235 149.877 15.4235C148.509 15.4235 147.506 15.9485 146.869 16.9986C146.232 18.0487 145.897 19.7257 145.866 22.0294V23.6849C145.866 26.1816 146.169 27.9657 146.775 29.0372C147.391 30.1088 148.446 30.6445 149.94 30.6445C151.203 30.6445 152.17 30.3391 152.838 29.7284C153.507 29.1176 153.862 28.1479 153.904 26.8192H159.372Z" fill="black"/>
<path d="M167.472 30.4034H177.045V34.7431H161.972V11.3409H167.472V30.4034Z" fill="black"/>
<path d="M196.88 11.3409V26.6584C196.88 28.3943 196.52 29.8998 195.799 31.1749C195.078 32.4393 194.044 33.4037 192.697 34.0681C191.349 34.7324 189.756 35.0646 187.918 35.0646C185.14 35.0646 182.951 34.3252 181.353 32.8465C179.755 31.3678 178.94 29.3426 178.909 26.771V11.3409H184.44V26.8835C184.503 29.4444 185.662 30.7249 187.918 30.7249C189.057 30.7249 189.918 30.4034 190.503 29.7605C191.088 29.1176 191.381 28.0729 191.381 26.6263V11.3409H196.88Z" fill="black"/>
<path d="M200.327 34.7431V11.3409H208.521C211.456 11.3409 213.686 11.8928 215.211 12.9965C216.747 14.1001 217.514 15.7021 217.514 17.8023C217.514 19.0131 217.243 20.0471 216.7 20.9043C216.156 21.7616 215.357 22.3938 214.302 22.8009C215.493 23.1224 216.407 23.7225 217.044 24.6011C217.681 25.4798 218 26.5513 218 27.8157C218 30.1088 217.29 31.8339 215.869 32.9912C214.459 34.1377 212.365 34.7217 209.586 34.7431H200.327ZM205.826 24.794V30.4034H209.43C210.422 30.4034 211.185 30.1731 211.717 29.7123C212.25 29.2408 212.516 28.5818 212.516 27.7353C212.516 25.7851 211.571 24.8047 209.68 24.794H205.826ZM205.826 21.0972H208.693C209.895 21.0865 210.751 20.8615 211.263 20.4221C211.775 19.9828 212.031 19.3345 212.031 18.4773C212.031 17.4915 211.754 16.7843 211.2 16.3557C210.647 15.9164 209.754 15.6967 208.521 15.6967H205.826V21.0972Z" fill="black"/>
<path d="M9.93495 43.3432C7.38092 43.2351 5.24235 41.2131 4.86267 38.5067L2.29401 20.171H7.74264L11.0617 31.7598L9.93495 43.3432Z" fill="#FF748F"/>
<path d="M20.2759 20.171L23.0311 31.7572L19.7121 43.3485H14.3808L11.0618 31.7597L13.817 20.171H20.2759Z" fill="#FF748F"/>
<path d="M31.7988 20.1701L29.2301 38.5058C28.8504 41.2122 26.7119 43.2342 24.1578 43.3424L23.0311 31.7562L26.3502 20.17H31.7988V20.1701Z" fill="#FF748F"/>
<path d="M31.7223 18.0731C32.1502 15.6588 30.7464 13.3044 28.5084 12.683L28.4936 12.6789L28.4256 12.4455C27.7685 10.1927 25.6348 8.81198 23.4483 9.22462L23.2128 9.26908L22.9963 8.98973C21.6135 7.20595 19.2114 6.76188 17.3424 7.94442L17.0464 8.13175L16.7504 7.94442C14.8813 6.76188 12.4792 7.20604 11.0964 8.98981L10.88 9.26908L10.6445 9.22462C8.45807 8.81189 6.3244 10.1927 5.66728 12.4454L5.59923 12.6788L5.58443 12.6829C3.34647 13.3043 1.94264 15.6587 2.37052 18.0731V18.0731H31.7223Z" fill="#FBF4AD"/>
<path d="M7.4917 3.17452C7.33873 3.00905 7.22787 2.80508 7.16947 2.5817L7.16939 2.58136C6.98145 1.86222 6.28563 1.43554 5.60524 1.62237L5.60501 1.62245C5.39348 1.68052 5.17159 1.68052 4.96007 1.62245L4.95983 1.62237C4.27945 1.43563 3.58363 1.86222 3.39569 2.58136L3.39561 2.5817C3.33721 2.80508 3.22634 3.00913 3.07338 3.17452C2.58117 3.70684 2.58117 4.55986 3.07338 5.09217C3.22634 5.25757 3.33721 5.46162 3.39561 5.685L3.39569 5.68534C3.58363 6.40448 4.27945 6.83115 4.95983 6.64433L4.96007 6.64424C5.17159 6.58617 5.39348 6.58617 5.60501 6.64424L5.60524 6.64433C6.28563 6.83107 6.98145 6.40448 7.16939 5.68534L7.16947 5.685C7.22787 5.46162 7.33873 5.25757 7.4917 5.09217C7.98391 4.55986 7.98391 3.70692 7.4917 3.17452Z" fill="#F8E86A"/>
<path d="M29.5745 7.09615C29.4216 6.93068 29.3107 6.72671 29.2523 6.50333L29.2522 6.50299C29.0643 5.78385 28.3685 5.35717 27.6881 5.544L27.6878 5.54408C27.4763 5.60215 27.2544 5.60215 27.0429 5.54408L27.0427 5.544C26.3623 5.35726 25.6665 5.78385 25.4785 6.50299L25.4784 6.50333C25.42 6.72671 25.3092 6.93076 25.1562 7.09615C24.664 7.62847 24.664 8.48149 25.1562 9.0138C25.3092 9.1792 25.42 9.38325 25.4784 9.60663L25.4785 9.60697C25.6665 10.3261 26.3623 10.7528 27.0427 10.566L27.0429 10.5659C27.2544 10.5078 27.4763 10.5078 27.6878 10.5659L27.6881 10.566C28.3685 10.7527 29.0643 10.3261 29.2522 9.60697L29.2523 9.60663C29.3107 9.38325 29.4216 9.1792 29.5745 9.0138C30.0667 8.4814 30.0667 7.62847 29.5745 7.09615Z" fill="#F8E86A"/>
<path d="M13.3502 39.7491L14.3808 43.3477H18.3985C16.5558 42.4446 14.8569 41.2249 13.3502 39.7491Z" fill="#FD5F7E"/>
<path d="M6.33739 22.2453C6.33739 21.5455 6.36596 20.8537 6.4189 20.17H2.29401L4.86275 38.5057C5.24243 41.2121 7.381 43.2341 9.93503 43.3423L10.6039 36.465C7.93319 32.5591 6.33739 27.6187 6.33739 22.2453Z" fill="#FD5F7E"/>
<path d="M14.3808 43.3475H10.1509C10.0784 43.3475 10.0067 43.3457 9.93498 43.3423L7.74268 20.17H13.817L14.3808 43.3475Z" fill="#F8D070"/>
<path d="M26.3502 20.17L24.1579 43.3423C24.0862 43.3457 24.0145 43.3475 23.9421 43.3475H19.7122L20.2759 20.17H26.3502Z" fill="#F8D070"/>
<path d="M9.8809 9.15284C7.9787 9.14822 6.24742 10.4565 5.66722 12.4454L5.59917 12.6788L5.58437 12.6829C3.3464 13.3043 1.94258 15.6587 2.37046 18.073V18.0731H6.66525C7.18412 14.8033 8.30164 11.7774 9.8809 9.15284Z" fill="#F8E86A"/>
<path d="M30.5653 17.0547H3.52753C1.90728 17.0547 0.59375 18.4496 0.59375 20.1704C0.59375 21.8912 1.9072 23.2862 3.52753 23.2862H30.5653C32.1855 23.2862 33.4991 21.8913 33.4991 20.1704C33.4991 18.4496 32.1855 17.0547 30.5653 17.0547Z" fill="#DEDEDE"/>
<path d="M9.03229 33.8007L9.93504 43.3424C10.0067 43.3459 10.0784 43.3476 10.1509 43.3476H14.3808L14.3149 40.6371C12.1821 38.7986 10.3809 36.4723 9.03229 33.8007Z" fill="#FBC072"/>
<path d="M6.33739 22.2454C6.33739 20.46 6.5137 18.7224 6.84685 17.0546H3.52753C1.90728 17.0546 0.59375 18.4495 0.59375 20.1702C0.59375 21.891 1.9072 23.286 3.52753 23.286H6.3586C6.34531 22.941 6.33739 22.5942 6.33739 22.2454Z" fill="#D0D0CE"/>
<path d="M11.3242 14.1377C11.652 14.1377 11.9177 13.8556 11.9177 13.5074V12.3397C11.9177 11.9916 11.652 11.7094 11.3242 11.7094C10.9964 11.7094 10.7307 11.9916 10.7307 12.3397V13.5074C10.7306 13.8556 10.9964 14.1377 11.3242 14.1377Z" fill="black"/>
<path d="M22.7687 14.1377C23.0964 14.1377 23.3622 13.8556 23.3622 13.5074V12.3397C23.3622 11.9916 23.0964 11.7094 22.7687 11.7094C22.4409 11.7094 22.1752 11.9916 22.1752 12.3397V13.5074C22.1752 13.8556 22.4409 14.1377 22.7687 14.1377Z" fill="black"/>
<path d="M19.0025 13.8869C19.2178 13.6244 19.1921 13.2262 18.9449 12.9975C18.6979 12.7688 18.3229 12.7962 18.1076 13.0586C17.5466 13.7422 16.5477 13.7442 15.9851 13.0586C15.7698 12.7962 15.3949 12.7688 15.1477 12.9975C14.9006 13.2262 14.8749 13.6244 15.0902 13.8869C16.1254 15.1484 17.9684 15.147 19.0025 13.8869Z" fill="black"/>
<path d="M7.91489 2.7327C7.83259 2.6437 7.77245 2.5331 7.74096 2.41259C7.46826 1.3693 6.44349 0.740837 5.45638 1.01187C5.3448 1.0428 5.22373 1.04372 5.10796 1.01187C4.12077 0.741089 3.096 1.36938 2.82338 2.41259C2.81444 2.43502 2.7835 2.58781 2.64953 2.7327C1.93551 3.50487 1.93551 4.76137 2.64953 5.53362C2.73183 5.62262 2.79189 5.73322 2.82338 5.85374C3.096 6.89703 4.12093 7.52549 5.10796 7.25445C5.13059 7.25143 5.26947 7.20394 5.45361 7.2537C6.4571 7.52582 7.46834 6.8898 7.74103 5.85332C7.77245 5.73314 7.83251 5.62254 7.91481 5.53354C8.62891 4.76145 8.62891 3.50495 7.91489 2.7327ZM7.06793 4.65044C6.84596 4.89054 6.68358 5.18864 6.59827 5.5127C6.49358 5.90811 6.11651 6.13242 5.75321 6.03392C5.23402 5.89147 4.80116 6.0356 4.80915 6.03451C4.44522 6.13343 4.06783 5.90131 3.96717 5.5164C3.88211 5.19099 3.71941 4.89155 3.49657 4.65044C3.2329 4.3652 3.2329 3.90121 3.49657 3.61597C3.87206 3.2098 3.97113 2.73934 3.96781 2.74774C4.06926 2.36359 4.44704 2.13248 4.81137 2.23249C5.11943 2.31703 5.44522 2.31703 5.75329 2.23249C6.11524 2.13222 6.49611 2.3625 6.5974 2.75001C6.68247 3.07542 6.84517 3.37486 7.06801 3.61589C7.3316 3.90121 7.3316 4.3652 7.06793 4.65044Z" fill="black"/>
<path d="M34.0929 20.1698C34.0929 18.8113 33.4084 17.6195 32.3864 16.9627C32.2959 14.7592 30.9441 12.8605 28.9658 12.1687C28.8564 11.8161 28.7101 11.4774 28.5341 11.1572C29.6009 10.824 29.8298 9.76423 29.825 9.77264C29.8565 9.65313 29.9164 9.54321 29.9983 9.45463C30.7122 8.68246 30.7122 7.42596 29.9983 6.6537C29.916 6.5647 29.8559 6.45411 29.8244 6.33359C29.5517 5.2903 28.5269 4.66193 27.5398 4.93288C27.4215 4.96431 27.3058 4.96389 27.1937 4.93355C26.2474 4.65714 25.1863 5.26366 24.9068 6.33367C24.8983 6.35494 24.8671 6.50865 24.7329 6.65379C24.2654 7.15938 24.1061 7.8723 24.2509 8.52126C23.9849 8.51958 23.7181 8.54034 23.4516 8.58446C21.887 6.57025 19.1682 6.06029 17.0464 7.3973C14.9319 6.06491 12.2113 6.56319 10.6414 8.58438C8.23198 8.18653 5.89012 9.707 5.12712 12.1686C3.14887 12.8603 1.79696 14.7591 1.70643 16.9626C0.684502 17.6195 0 18.8113 0 20.1698C0 21.7282 0.900931 23.0669 2.17861 23.6307L4.27556 38.5986C4.71072 41.7016 7.22541 43.9779 10.1507 43.9779C13.4935 43.9779 22.3403 43.9761 24.1863 43.9719C27.03 43.8491 29.3977 41.5901 29.8175 38.5985L31.9143 23.6307C33.1919 23.067 34.0929 21.7282 34.0929 20.1698ZM25.5799 7.53689C25.9554 7.13072 26.0544 6.66026 26.051 6.66866C26.1523 6.28518 26.529 6.05415 26.8925 6.15282C26.9556 6.16131 27.3349 6.29115 27.8365 6.15341C27.8372 6.15324 27.8379 6.15299 27.8386 6.15282C28.2023 6.05399 28.58 6.28602 28.6805 6.67093C28.7656 6.99642 28.9283 7.29586 29.1512 7.53681C29.4148 7.82204 29.4148 8.28612 29.1512 8.57135C28.9284 8.81238 28.7656 9.11182 28.6806 9.43723C28.5642 9.8492 28.1831 10.049 27.8386 9.95543C27.4759 9.85693 27.1859 9.88147 26.8241 9.97013C26.4046 10.0369 26.164 9.68633 26.1719 9.69263C26.0683 9.55211 26.0525 9.43286 26.0171 9.32377C25.9292 9.05148 25.7787 8.7865 25.5799 8.57144C25.3162 8.2862 25.3162 7.82213 25.5799 7.53689ZM2.94882 16.4737C3.20782 14.9498 4.2709 13.6984 5.73438 13.292L5.74926 13.2879C6.1674 13.1717 6.18703 12.73 6.23403 12.6313C6.80142 10.6862 8.65297 9.48816 10.5406 9.84449C10.6479 9.84449 11.0493 10.0416 11.3381 9.66893L11.5546 9.38966C12.76 7.83473 14.8174 7.45436 16.4466 8.48513L16.7427 8.67246C16.9298 8.79087 17.163 8.79087 17.3502 8.67246L17.6462 8.48513C19.2754 7.45428 21.3328 7.83465 22.5382 9.38958L22.7548 9.66893C23.0429 10.0405 23.4512 9.84449 23.5524 9.84441C24.0127 9.75759 24.4745 9.76054 24.9288 9.8529C25.2182 10.8061 26.1628 11.4088 27.1117 11.1953C27.7428 11.9772 27.8788 12.7384 27.927 12.8647C27.9856 13.0654 28.1336 13.2297 28.3586 13.2921C29.822 13.6985 30.885 14.9498 31.144 16.4737C30.9706 16.4435 30.7557 16.4237 30.5656 16.4237C2.31655 16.4256 3.39402 16.3962 2.94882 16.4737ZM1.18692 20.1698C1.18692 19.1581 1.75937 18.2863 2.578 17.8987C3.228 17.5912 1.94027 17.6856 30.5656 17.6843C31.8471 17.6843 32.9059 18.7922 32.9059 20.1697C32.9059 21.3043 32.1861 22.263 31.2062 22.5597C30.6905 22.7154 32.4169 22.6552 3.52728 22.6552C2.12781 22.6241 1.18692 21.4544 1.18692 20.1698ZM19.1338 42.7173H14.9591C14.9545 42.5271 14.5234 24.8052 14.5018 23.9159H19.5911C19.5851 24.161 19.1625 41.5336 19.1338 42.7173ZM5.4495 38.413L3.41831 23.9142C3.53535 23.918 3.38239 23.9153 7.5004 23.9159L8.43544 33.7985C8.4682 34.1448 8.75925 34.3971 9.08528 34.3627C9.41138 34.3279 9.64926 34.0188 9.6165 33.6724L8.69341 23.9159H13.3143C13.3189 24.1061 13.75 41.828 13.7716 42.7173H10.4722L9.85501 36.1937C9.82224 35.8474 9.53143 35.5943 9.20516 35.6296C8.87906 35.6644 8.64118 35.9734 8.67394 36.3198L9.27092 42.63C7.30898 42.2389 5.751 40.5622 5.4495 38.413ZM30.6745 23.9142L28.6433 38.4129C28.3418 40.5622 26.7837 42.2389 24.8219 42.6301L25.9254 30.9661C25.9581 30.6197 25.7203 30.3107 25.3941 30.2759C25.0677 30.2409 24.7771 30.4937 24.7442 30.8401L23.6207 42.7173H20.3212C20.3271 42.4722 20.7497 25.0996 20.7785 23.9159H25.3994L24.9828 28.3188C24.9401 28.7705 25.3467 29.1163 25.7487 28.9844C25.9698 28.9118 26.1393 28.7047 26.1639 28.4448L26.5924 23.9159C30.7937 23.9152 30.5729 23.9174 30.6745 23.9142Z" fill="black"/>
</svg>
